PathFileType	4	(X/Y/Z)	/Users/niels/Desktop/University/Third Semester/Perception and Action/Exam/Gymnastics Motion Tracking/Code for Gym Tracking/Analyzed Data/Webcam_Backflip/id4_2_pure_Sports2D/id4_2_pure_Sports2D_px_person00.trc
DataRate	CameraRate	NumFrames	NumMarkers	Units	OrigDataRate	OrigDataStartFrame	OrigNumFrames
29.8125	29.8125	9	22	m	29.8125	60	160
Frame#	Time	Hip			RHip			RKnee			RAnkle			RBigToe			RSmallToe			RHeel			LHip			LKnee			LAnkle			LBigToe			LSmallToe			LHeel			Neck			Head			Nose			RShoulder			RElbow			RWrist			LShoulder			LElbow			LWrist		
		X1	Y1	Z1	X2	Y2	Z2	X3	Y3	Z3	X4	Y4	Z4	X5	Y5	Z5	X6	Y6	Z6	X7	Y7	Z7	X8	Y8	Z8	X9	Y9	Z9	X10	Y10	Z10	X11	Y11	Z11	X12	Y12	Z12	X13	Y13	Z13	X14	Y14	Z14	X15	Y15	Z15	X16	Y16	Z16	X17	Y17	Z17	X18	Y18	Z18	X19	Y19	Z19	X20	Y20	Z20	X21	Y21	Z21	X22	Y22	Z22
60	2.012578616352201	1.0029528431061518	-0.5926088034247634	0.0	1.0012628675040367	-0.5948248314815893	0.0	1.0911258287309804	-0.6686077452919182	0.0	1.0641325112390567	-0.7750850988816964	0.0	1.1041245417380432	-0.792784288270921	0.0	1.0939044353701568	-0.7954638132102153	0.0	1.0535451611151394	-0.7890011961574516	0.0	1.0070869297106824	-0.5913839111545145	0.0	1.0879457080595005	-0.6659143382571348	0.0	1.0632528437205921	-0.7695485263172447	0.0	1.0979207531326218	-0.7967150715799927	0.0	1.0923742318105385	-0.7877521046496645	0.0	1.0477572915222146	-0.7839300662704192	0.0	1.0532330587779561	-0.4533191379500075	0.0	1.0953157330397107	-0.3965987291250514	0.0	1.090117991979565	-0.43033589121035876	0.0	1.0437495178149692	-0.4683737663776943	0.0	1.047059528112384	-0.5463021002330721	0.0	1.1043113330556675	-0.5880297490729703	0.0	1.0414374130627317	-0.4680342447294783	0.0	1.0391549519004364	-0.5443680888580619	0.0	1.0638720002112636	-0.5919937903614036	0.0
61	2.0461215932914043	0.9981432095187118	-0.5684902787675132	0.0	0.9955159399756665	-0.570286978076673	0.0	1.086863941838172	-0.6435841115279228	0.0	1.0627642501311731	-0.753734767116669	0.0	1.1057902525719159	-0.7726372111676614	0.0	1.095821736826197	-0.775518203872063	0.0	1.0525246684807996	-0.768483501379366	0.0	1.0034948933808614	-0.566626995126071	0.0	1.0851048882980492	-0.6409893260454351	0.0	1.0643663168030033	-0.7471410602500308	0.0	1.1014248384985241	-0.7713048710658212	0.0	1.0968434144418662	-0.7656470198477981	0.0	1.050320438680226	-0.7626739599094651	0.0	1.0504011103902682	-0.4310896397107077	0.0	1.0944119620609505	-0.37452773792128835	0.0	1.0872082500620868	-0.4090235260956854	0.0	1.0406545283235358	-0.44419850101144354	0.0	1.0463990161110195	-0.5207684907869816	0.0	1.105705166828989	-0.5593984409192718	0.0	1.040093198585007	-0.44538119387773767	0.0	1.0384634291339134	-0.5201023137393628	0.0	1.0658309744735677	-0.5665425767354387	0.0
62	2.079664570230608	0.99432605923453	-0.5461934658830621	0.0	0.9904857156316215	-0.5476006496573612	0.0	1.0804605113327181	-0.6230109302920253	0.0	1.0586772638401756	-0.7362873513283212	0.0	1.1034392597731566	-0.7560458232035475	0.0	1.0934130011163357	-0.759271485685971	0.0	1.0486410561431305	-0.7515814016138979	0.0	1.001121898753966	-0.5440157948380852	0.0	1.0817585603341635	-0.6203539611327965	0.0	1.065946499780355	-0.727847590293652	0.0	1.105200877138185	-0.7499548392097054	0.0	1.1014081666242899	-0.7465371303171264	0.0	1.0536314144156644	-0.7441668675433493	0.0	1.0467639932461628	-0.41015224178244447	0.0	1.0918533772739967	-0.35339977183060856	0.0	1.0834239695244097	-0.3887365808164297	0.0	1.036959169588783	-0.42142973870979217	0.0	1.0455573735267478	-0.4962160364146313	0.0	1.106972714119046	-0.5302048077281594	0.0	1.0377335148589037	-0.4243155675309417	0.0	1.037821928686721	-0.4966478113900434	0.0	1.0687515974921233	-0.541023061324526	0.0
63	2.113207547169811	0.9914477283449171	-0.5271561305334161	0.0	0.9861894012235196	-0.5281583840121571	0.0	1.0721175390171822	-0.6079714776634835	0.0	1.0512585883940038	-0.723360623003394	0.0	1.0962532353398682	-0.7438823548476965	0.0	1.0859131909875361	-0.7473249278903558	0.0	1.0412997820481573	-0.7387424490681739	0.0	0.9997397758266365	-0.5249711546130412	0.0	1.078384856419091	-0.604524108117028	0.0	1.0679837136027868	-0.7123025432586731	0.0	1.108982445013651	-0.7333907877634217	0.0	1.1056828440802822	-0.7310584336553356	0.0	1.0573789565383591	-0.7289884233916265	0.0	1.0424364518172864	-0.39170148196986915	0.0	1.087699324631449	-0.33451896954429367	0.0	1.0788778886871728	-0.37055733021940834	0.0	1.0327956503122502	-0.40136177697826075	0.0	1.0443409592218669	-0.47388498819935454	0.0	1.1077006900665016	-0.5018386418865092	0.0	1.0341806408602054	-0.40596434340643484	0.0	1.0365067402932493	-0.4755348400916143	0.0	1.071353465807372	-0.5167475641057695	0.0
64	2.1467505241090143	0.9893547053033084	-0.5122951845882905	0.0	0.9825699421605728	-0.5128876756171216	0.0	1.0622618357074645	-0.5986323897453484	0.0	1.0404192517750561	-0.7147296969573622	0.0	1.0842173193959697	-0.7364723908679838	0.0	1.0735142604899144	-0.739856169498631	0.0	1.0303741483020772	-0.7297491435366549	0.0	0.9990385634894661	-0.5103459392595608	0.0	1.0753599120424397	-0.593116502192907	0.0	1.0700759356246774	-0.7006424365253276	0.0	1.1122896116280874	-0.7216399317108191	0.0	1.1091737279540912	-0.7194760615554712	0.0	1.0608145770649406	-0.7173161421588333	0.0	1.0375545959548886	-0.37651855935161516	0.0	1.0821593684807294	-0.3187792781796861	0.0	1.0736684693092222	-0.35519222165988995	0.0	1.0282769917480938	-0.38483026390045477	0.0	1.042655172732315	-0.4545686715700901	0.0	1.107628650751282	-0.4752982898488506	0.0	1.0294868785753972	-0.39098407924238626	0.0	1.0339854184997088	-0.457901252741007	0.0	1.0723999151771548	-0.4948000747338515	0.0
65	2.180293501048218	0.9878523227209265	-0.5020413432517017	0.0	0.9795587732070229	-0.5022713047271168	0.0	1.0514704286619558	-0.5945045941002016	0.0	1.0267765713296246	-0.7098197135787937	0.0	1.068119986243317	-0.7337027480852536	0.0	1.057229839819553	-0.736715794243876	0.0	1.0164129585410107	-0.7241390302806581	0.0	0.9987284838418906	-0.5005014032149159	0.0	1.0729029374077277	-0.585474597893942	0.0	1.071452374034664	-0.6927547710007557	0.0	1.1142445052858665	-0.7144340580954204	0.0	1.1111262250435654	-0.7118536566324117	0.0	1.062944781149453	-0.7090966559117122	0.0	1.0322416490748485	-0.36506725509066124	0.0	1.0755480621486329	-0.30672233193170884	0.0	1.0679107986946206	-0.34313323225994563	0.0	1.0234729811237888	-0.3723189459599216	0.0	1.0404315422887565	-0.4387729137366492	0.0	1.1064971492426143	-0.45133413300400743	0.0	1.0239454514859776	-0.37971990253056415	0.0	1.03009261095546	-0.44432503623124253	0.0	1.0710347502872766	-0.47595394327180857	0.0
66	2.213836477987421	0.9867642380852134	-0.4964562547706969	0.0	0.9771092174115972	-0.49640210242655564	0.0	1.0402692894445336	-0.59478990079503	0.0	1.0115521649847004	-0.7081790354988374	0.0	1.0494547808780406	-0.735128516558236	0.0	1.0386190127881745	-0.7375091539286245	0.0	1.0006501107366652	-0.7216592759233302	0.0	0.9986060675828916	-0.4954132322329259	0.0	1.071074371132364	-0.5811878116960686	0.0	1.0712025264138845	-0.6884001961459273	0.0	1.1136690691412445	-0.7114189495046218	0.0	1.1105429915642948	-0.7081773371837525	0.0	1.0627987202961204	-0.7041430947318639	0.0	1.0265813231024905	-0.3576109210159268	0.0	1.068264743892814	-0.2985914783939656	0.0	1.0617595113807996	-0.3347424587833181	0.0	1.0183975093756985	-0.36404598678277	0.0	1.0375811354432418	-0.42684236594896624	0.0	1.1039281785231074	-0.4305759717987907	0.0	1.0180334970476634	-0.37235980888589204	0.0	1.0251237690120736	-0.4348915636400595	0.0	1.0670849972008098	-0.46063652857867865	0.0
67	2.2473794549266244	0.9859594283231948	-0.4953891486809905	0.0	0.9751521924950847	-0.4951277632311616	0.0	1.0290329271232705	-0.5987465977857952	0.0	0.9962239154054627	-0.7097004770019135	0.0	1.0301446405159826	-0.7401394212680421	0.0	1.019445667402864	-0.7417451285296474	0.0	0.9847286868034564	-0.7224365059859583	0.0	0.9985665160333251	-0.4948289588293793	0.0	1.0697781975225495	-0.5802783292922463	0.0	1.0685121938079962	-0.6872919193083833	0.0	1.109432181084308	-0.7122907863945219	0.0	1.106415774089451	-0.7083771508189989	0.0	1.0596011266357996	-0.7022429081012355	0.0	1.0206574078822501	-0.35428204375787664	0.0	1.060714080184176	-0.29444976400549633	0.0	1.0553631887474928	-0.3302695808628506	0.0	1.013031446777628	-0.3600599102389391	0.0	1.03398952194986	-0.4190037024547322	0.0	1.0995300084737816	-0.41357137513419623	0.0	1.012243992101831	-0.36901742788140274	0.0	1.0196062496328806	-0.42949200382386066	0.0	1.0609738271839888	-0.4491913296837142	0.0
68	2.280922431865828	0.985334997221896	-0.4985787769983081	0.0	0.9735844696349788	-0.4981882751687234	0.0	1.0180540042993935	-0.6058766072811231	0.0	0.9821441694226137	-0.7145272209807034	0.0	1.012219820134951	-0.7480979984181295	0.0	1.001516681330734	-0.7489648865168546	0.0	0.9702194709737735	-0.7267853864267277	0.0	0.9985541302311395	-0.49840335099862726	0.0	1.0687438049298994	-0.5830148921921479	0.0	1.0628188090641086	-0.6891394766366641	0.0	1.1008315836952502	-0.7167680343776145	0.0	1.0980483904513771	-0.7121910713620639	0.0	1.0529149158027955	-0.7032700400545752	0.0	1.0146295896652824	-0.35505878972548127	0.0	1.0531786888440084	-0.2942861249166135	0.0	1.04879767359306	-0.329843628854717	0.0	1.0073816008861776	-0.3603152073421801	0.0	1.0295077738065148	-0.41538623090717963	0.0	1.0930473677235581	-0.40085227541035184	0.0	1.0069063234565991	-0.36973217087932914	0.0	1.0138061822483486	-0.42812589366124376	0.0	1.0533214526224308	-0.44221442375746883	0.0
